HIERARCHY
ROOT ORG_Hips
{
	OFFSET 0.002195 0.276549 -0.119644
	CHANNELS 6 Xposition Yposition Zposition Xrotation Yrotation Zrotation
	JOINT ORG_BN_Bip01_Pelvis
	{
		OFFSET -0.000005 -0.130429 -0.122533
		CHANNELS 3 Xrotation Yrotation Zrotation
		JOINT DEF_BN_Eye_L_01
		{
			OFFSET 0.034465 0.165452 0.234836
			CHANNELS 3 Xrotation Yrotation Zrotation
			JOINT DEF_BN_Eye_L_02
			{
				OFFSET 0.013967 -0.003054 0.018051
				CHANNELS 3 Xrotation Yrotation Zrotation
				JOINT DEF_BN_Eye_L_03
				{
					OFFSET 0.031914 0.029256 0.030898
					CHANNELS 3 Xrotation Yrotation Zrotation
					JOINT DEF_BN_Eye_L_03_end
					{
						OFFSET 0.031634 0.037856 0.019883
						CHANNELS 3 Xrotation Yrotation Zrotation
						End Site
						{
							OFFSET 0.031634 0.037856 0.019883
						}
					}
				}
			}
		}
		JOINT DEF_BN_Eye_R_01
		{
			OFFSET -0.016220 0.170169 0.233429
			CHANNELS 3 Xrotation Yrotation Zrotation
			JOINT DEF_BN_Eye_R_02
			{
				OFFSET -0.015307 -0.000857 0.017182
				CHANNELS 3 Xrotation Yrotation Zrotation
				JOINT DEF_BN_Eye_R_03
				{
					OFFSET -0.025557 0.036659 0.028846
					CHANNELS 3 Xrotation Yrotation Zrotation
					JOINT DEF_BN_Eye_R_03_end
					{
						OFFSET -0.022499 0.044128 0.019381
						CHANNELS 3 Xrotation Yrotation Zrotation
						End Site
						{
							OFFSET -0.022499 0.044128 0.019381
						}
					}
				}
			}
		}
		JOINT DEF_BN_Leg_L_11
		{
			OFFSET 0.082495 0.009555 0.023389
			CHANNELS 3 Xrotation Yrotation Zrotation
			JOINT DEF_BN_Leg_L_12
			{
				OFFSET 0.071294 -0.022573 -0.064435
				CHANNELS 3 Xrotation Yrotation Zrotation
				JOINT DEF_BN_Leg_L_13
				{
					OFFSET 0.174351 0.107049 -0.077156
					CHANNELS 3 Xrotation Yrotation Zrotation
					JOINT DEF_BN_Leg_L_14
					{
						OFFSET 0.082840 -0.037595 -0.061860
						CHANNELS 3 Xrotation Yrotation Zrotation
						JOINT DEF_BN_Leg_L_15
						{
							OFFSET 0.067977 -0.083342 -0.070866
							CHANNELS 3 Xrotation Yrotation Zrotation
							JOINT DEF_BN_Leg_L_15_end
							{
								OFFSET 0.010923 -0.118660 -0.048881
								CHANNELS 3 Xrotation Yrotation Zrotation
								End Site
								{
									OFFSET 0.010923 0.016985 -0.048881
								}
							}
						}
					}
				}
			}
		}
		JOINT DEF_BN_Leg_R_11
		{
			OFFSET -0.080477 0.024722 0.018868
			CHANNELS 3 Xrotation Yrotation Zrotation
			JOINT DEF_BN_Leg_R_12
			{
				OFFSET -0.067150 -0.041305 -0.059406
				CHANNELS 3 Xrotation Yrotation Zrotation
				JOINT DEF_BN_Leg_R_13
				{
					OFFSET -0.171738 0.122956 -0.056556
					CHANNELS 3 Xrotation Yrotation Zrotation
					JOINT DEF_BN_Leg_R_14
					{
						OFFSET -0.081995 -0.047709 -0.055705
						CHANNELS 3 Xrotation Yrotation Zrotation
						JOINT DEF_BN_Leg_R_15
						{
							OFFSET -0.071457 -0.086316 -0.063499
							CHANNELS 3 Xrotation Yrotation Zrotation
							JOINT DEF_BN_Leg_R_15_end
							{
								OFFSET -0.023724 -0.117169 -0.047932
								CHANNELS 3 Xrotation Yrotation Zrotation
								End Site
								{
									OFFSET -0.023724 0.017789 -0.047932
								}
							}
						}
					}
				}
			}
		}
		JOINT DEF_BN_leg_L_01
		{
			OFFSET 0.077225 0.021671 0.123900
			CHANNELS 3 Xrotation Yrotation Zrotation
			JOINT DEF_BN_leg_L_02
			{
				OFFSET 0.061322 -0.017910 0.062120
				CHANNELS 3 Xrotation Yrotation Zrotation
				JOINT DEF_BN_leg_L_03
				{
					OFFSET 0.090499 0.080240 0.098565
					CHANNELS 3 Xrotation Yrotation Zrotation
					JOINT DEF_BN_leg_L_04
					{
						OFFSET 0.035294 -0.040907 0.080340
						CHANNELS 3 Xrotation Yrotation Zrotation
						JOINT DEF_BN_leg_L_05
						{
							OFFSET 0.038312 -0.082094 0.056903
							CHANNELS 3 Xrotation Yrotation Zrotation
							JOINT DEF_BN_leg_L_05_end
							{
								OFFSET -0.001359 -0.106923 0.003304
								CHANNELS 3 Xrotation Yrotation Zrotation
								End Site
								{
									OFFSET -0.001360 0.021254 0.003305
								}
							}
						}
					}
				}
			}
		}
		JOINT DEF_BN_leg_L_06
		{
			OFFSET 0.078774 0.006440 0.078977
			CHANNELS 3 Xrotation Yrotation Zrotation
			JOINT DEF_BN_Leg_L_07
			{
				OFFSET 0.083528 -0.034434 -0.002060
				CHANNELS 3 Xrotation Yrotation Zrotation
				JOINT DEF_BN_Leg_L_08
				{
					OFFSET 0.119291 0.136566 0.048241
					CHANNELS 3 Xrotation Yrotation Zrotation
					JOINT DEF_BN_Leg_L_09
					{
						OFFSET 0.091371 -0.053438 0.028675
						CHANNELS 3 Xrotation Yrotation Zrotation
						JOINT DEF_BN_Leg_L_10
						{
							OFFSET 0.045488 -0.097240 0.017221
							CHANNELS 3 Xrotation Yrotation Zrotation
							JOINT DEF_BN_Leg_L_10_end
							{
								OFFSET -0.011345 -0.108106 -0.002390
								CHANNELS 3 Xrotation Yrotation Zrotation
								End Site
								{
									OFFSET -0.011345 0.027789 -0.002390
								}
							}
						}
					}
				}
			}
		}
		JOINT DEF_BN_leg_R_01
		{
			OFFSET -0.078597 0.036173 0.119577
			CHANNELS 3 Xrotation Yrotation Zrotation
			JOINT DEF_BN_leg_R_02
			{
				OFFSET -0.075483 -0.034917 0.031987
				CHANNELS 3 Xrotation Yrotation Zrotation
				JOINT DEF_BN_leg_R_03
				{
					OFFSET -0.107318 0.098291 0.056260
					CHANNELS 3 Xrotation Yrotation Zrotation
					JOINT DEF_BN_leg_R_04
					{
						OFFSET -0.043041 -0.055820 0.066372
						CHANNELS 3 Xrotation Yrotation Zrotation
						JOINT DEF_BN_leg_R_05
						{
							OFFSET -0.038049 -0.086035 0.050946
							CHANNELS 3 Xrotation Yrotation Zrotation
							JOINT DEF_BN_leg_R_05_end
							{
								OFFSET 0.005565 -0.103751 0.025494
								CHANNELS 3 Xrotation Yrotation Zrotation
								End Site
								{
									OFFSET 0.005565 0.013310 0.025494
								}
							}
						}
					}
				}
			}
		}
		JOINT DEF_BN_leg_R_06
		{
			OFFSET -0.080456 0.021259 0.074559
			CHANNELS 3 Xrotation Yrotation Zrotation
			JOINT DEF_BN_Leg_R_07
			{
				OFFSET -0.054882 -0.067271 -0.025089
				CHANNELS 3 Xrotation Yrotation Zrotation
				JOINT DEF_BN_Leg_R_08
				{
					OFFSET -0.115127 0.146415 0.022722
					CHANNELS 3 Xrotation Yrotation Zrotation
					JOINT DEF_BN_Leg_R_09
					{
						OFFSET -0.090874 -0.059865 0.013586
						CHANNELS 3 Xrotation Yrotation Zrotation
						JOINT DEF_BN_Leg_R_10
						{
							OFFSET -0.063340 -0.087650 0.011264
							CHANNELS 3 Xrotation Yrotation Zrotation
							JOINT DEF_BN_Leg_R_10_end
							{
								OFFSET -0.031643 -0.103894 0.005099
								CHANNELS 3 Xrotation Yrotation Zrotation
								End Site
								{
									OFFSET -0.031643 0.011914 0.005099
								}
							}
						}
					}
				}
			}
		}
		JOINT DEF_BN_Bip01_Pelvis
		{
			OFFSET 0.000000 0.000000 0.000000
			CHANNELS 3 Xrotation Yrotation Zrotation
			JOINT DEF_BN_Bip01_Pelvis_end
			{
				OFFSET 0.006595 0.103387 0.109110
				CHANNELS 3 Xrotation Yrotation Zrotation
				End Site
				{
					OFFSET 0.006595 0.103387 0.109110
				}
			}
		}
		JOINT DEF_BN_Arm_L_01
		{
			OFFSET 0.079776 0.042065 0.175588
			CHANNELS 3 Xrotation Yrotation Zrotation
			JOINT DEF_BN_Arm_L_02
			{
				OFFSET 0.145664 0.040641 0.075148
				CHANNELS 3 Xrotation Yrotation Zrotation
				JOINT DEF_BN_Arm_L_03
				{
					OFFSET 0.008198 0.047794 0.068954
					CHANNELS 3 Xrotation Yrotation Zrotation
					JOINT DEF_BN_Arm_L_03_end
					{
						OFFSET -0.028034 0.038778 0.069401
						CHANNELS 3 Xrotation Yrotation Zrotation
						End Site
						{
							OFFSET -0.028034 0.038778 0.069401
						}
					}
				}
			}
		}
		JOINT DEF_BN_Arm_R_01
		{
			OFFSET -0.068366 0.039724 0.170309
			CHANNELS 3 Xrotation Yrotation Zrotation
			JOINT DEF_BN_Arm_R_02
			{
				OFFSET -0.153582 0.072870 0.105041
				CHANNELS 3 Xrotation Yrotation Zrotation
				JOINT DEF_BN_Arm_R_03
				{
					OFFSET -0.023332 0.086547 0.149780
					CHANNELS 3 Xrotation Yrotation Zrotation
					JOINT DEF_BN_Arm_R_03_end
					{
						OFFSET 0.039781 0.046970 0.163341
						CHANNELS 3 Xrotation Yrotation Zrotation
						End Site
						{
							OFFSET 0.039781 0.046970 0.163341
						}
					}
				}
			}
		}
	}
}
MOTION
Frames: 4
Frame Time: 0.033333
-0.114999 0.218900 -0.119644 7.847175 21.303563 -3.297108 0.000226 -0.000016 0.000005 0.000017 0.000003 -0.000029 0.000005 0.000002 -0.000004 -0.000000 0.000022 -0.000017 -0.000000 -0.000010 0.000003 0.000010 -0.000012 -0.000003 0.000001 -0.000016 -0.000003 0.000006 -0.000003 0.000002 0.000005 0.000003 0.000004 -13.740452 -27.517009 -10.613889 -2.629903 1.728102 -3.707997 11.002812 -4.153104 17.755780 10.940423 -4.369728 17.287031 7.910267 -3.551496 12.629692 0.000000 0.000006 0.000000 14.167453 -24.570354 5.661755 -0.798698 -0.542659 1.362458 -6.056084 -4.393826 12.569133 -5.471929 -3.995512 11.094207 -3.467930 -2.332204 6.899318 -0.000001 0.000001 -0.000000 -2.423366 -13.662256 -4.005603 0.114310 -0.003884 -0.112912 -15.440425 2.269757 8.799001 -14.242119 -0.671420 10.490558 -9.684006 -0.321816 8.288086 -0.000014 0.000001 -0.000001 -7.244416 -23.174880 -7.227743 0.089953 0.523159 -1.740415 -5.291406 0.906698 19.583795 -5.114794 0.300574 19.930941 -3.374358 -0.321454 13.124445 0.000002 0.000001 -0.000002 -9.149109 -3.271687 -13.718798 -3.992642 0.831766 -8.618375 8.543262 5.462976 9.420946 9.068795 4.489687 12.638226 6.251597 3.483230 10.246760 0.000006 0.000005 -0.000003 6.723745 -14.617056 -11.760908 2.178499 3.034548 -11.605694 1.628231 1.760652 19.156184 1.810868 1.642667 21.726606 1.251303 0.482570 14.605899 0.000004 -0.000002 -0.000007 0.000003 -0.000002 0.000003 0.000002 0.000001 -0.000000 1.488208 -21.998764 11.208919 -2.309779 -1.981934 -5.956933 -7.489141 6.206648 -2.584396 0.000009 -0.000005 -0.000001 -4.533386 -14.537291 2.502019 5.728506 -2.994680 -3.959690 0.149269 0.126016 0.026867 -0.000001 0.000005 -0.000001 
-0.114568 0.233672 -0.119644 18.599418 18.114051 -6.197243 0.224404 0.154837 0.229222 0.000002 0.000015 -0.000032 0.000004 0.000006 -0.000015 -0.000020 0.000016 -0.000005 0.000006 -0.000007 0.000006 -0.000003 -0.000018 0.000003 -0.000001 -0.000019 0.000003 0.000006 -0.000006 -0.000012 -0.000000 0.000008 -0.000002 -17.537667 -28.623595 -14.218231 -3.521718 2.378820 -4.986109 10.759418 -4.100788 17.377135 10.904890 -4.360921 17.232578 7.976907 -3.572727 12.733213 0.000003 -0.000005 -0.000007 4.458223 -14.343686 8.141048 -2.937448 -2.043701 5.018597 -6.362945 -4.661640 13.228335 -5.309276 -3.843482 10.733974 -3.112237 -2.060815 6.163345 0.000002 -0.000001 -0.000006 -3.255033 -14.093366 -2.307652 0.177862 -0.000952 -0.172550 -20.418671 2.484588 11.702025 -18.345427 -1.353728 13.485156 -12.740058 -0.716523 10.895779 -0.000003 -0.000002 -0.000005 -7.183186 -25.033217 -6.829528 0.118943 0.660206 -2.184961 -6.115828 0.886959 22.587323 -5.800084 0.205563 22.619565 -3.817397 -0.422984 14.883255 0.000001 0.000003 -0.000001 -12.923145 3.786584 -12.089820 -4.557009 1.006594 -9.854033 6.715243 4.127533 7.389741 7.723314 3.661818 10.716686 5.605655 3.053204 9.155196 0.000013 -0.000001 -0.000004 0.557197 -2.482297 -8.234372 1.809884 2.617429 -9.862410 1.571482 1.674871 18.339948 1.653184 1.453054 19.563122 1.105007 0.409622 12.869508 0.000007 0.000003 0.000004 -0.000011 -0.000001 -0.000004 0.000006 0.000004 0.000003 -2.185747 -16.785641 15.489322 -8.632540 -1.669710 -9.738483 -7.907442 6.986053 -3.119620 0.000002 -0.000002 0.000003 -7.527792 -15.037256 -1.164302 -1.187029 0.558084 0.702880 0.151335 0.127717 0.021543 0.000001 0.000002 0.000001 
-0.113183 0.286298 -0.119644 28.155640 13.288391 -7.873536 0.841816 0.587884 0.860343 0.000018 0.000025 -0.000031 -0.000003 0.000010 0.000003 0.000012 0.000013 -0.000015 0.000002 0.000004 0.000006 0.000010 0.000006 0.000014 -0.000013 -0.000022 -0.000008 0.000007 -0.000004 -0.000001 0.000000 -0.000001 -0.000003 -24.939710 -28.780863 -22.157815 -6.323867 4.633631 -9.081958 12.498823 -4.427298 20.095275 12.852177 -4.758689 20.205175 9.710593 -4.080510 15.413585 0.000006 0.000009 -0.000009 -9.738652 -1.600242 13.271396 -5.376818 -4.018290 9.338824 -5.428832 -3.814683 11.141431 -3.865561 -2.635069 7.690001 -1.873428 -1.179732 3.664058 0.000003 0.000001 -0.000001 -1.166743 -15.690401 -2.400590 8.074585 -0.137696 -7.753324 -32.591358 1.945869 18.788068 -27.193794 -3.578342 19.841990 -21.425013 -2.619257 18.267401 0.000002 -0.000001 -0.000008 -7.398584 -27.493936 -10.403464 0.396092 1.835811 -6.035986 -7.480800 0.758447 27.581200 -7.077673 -0.061004 27.684119 -4.719890 -0.674846 18.505469 0.000003 0.000004 -0.000009 -13.638307 11.357678 -5.801338 -3.717122 0.764767 -8.007125 3.135403 1.782331 3.439321 4.101164 1.724126 5.633416 3.254728 1.630467 5.252322 0.000002 0.000011 -0.000004 -7.234375 11.397204 1.289105 0.757695 1.233038 -4.449238 1.229586 1.205529 13.714628 1.110216 0.870850 12.531118 0.668044 0.218487 7.698848 -0.000001 0.000001 0.000004 0.000006 -0.000001 -0.000001 -0.000004 0.000003 0.000001 -5.762589 -10.393682 17.737783 -13.563329 -0.774773 -13.083741 -8.373322 7.858048 -3.712179 0.000012 -0.000001 -0.000003 -9.859561 -13.782868 -4.823438 -7.449038 3.169301 5.096292 0.153431 0.129422 0.016220 0.000001 0.000004 0.000003 
-0.110689 0.356829 -0.119644 31.939761 7.686894 -7.323017 1.766909 1.255811 1.806317 0.000013 0.000012 -0.000025 0.000004 0.000015 -0.000005 0.000009 0.000018 -0.000028 -0.000007 0.000006 0.000009 -0.000009 -0.000025 0.000002 -0.000010 -0.000003 -0.000003 0.000001 -0.000008 -0.000026 0.000006 0.000005 -0.000003 -31.841393 -26.643690 -29.619669 -13.498434 12.145338 -20.353583 20.506844 -4.864675 32.497053 17.158506 -5.273071 26.732075 14.843181 -5.084946 23.250297 0.000013 -0.000005 0.000004 -21.740017 7.680939 19.434277 -6.952483 -5.462218 12.236960 -3.182601 -2.041584 6.392549 -1.389511 -0.857742 2.706864 -0.087681 -0.050618 0.167980 0.000005 0.000007 0.000003 -11.410488 -16.269946 4.584831 29.985934 -5.323144 -28.945539 -51.298774 2.077189 30.340445 -22.171342 -8.043316 8.897808 -31.075814 -6.025669 21.281548 0.000002 0.000001 0.000006 -8.268724 -29.655073 -17.448357 1.170503 4.088942 -13.665574 -9.401770 0.369475 34.715024 -8.743796 -0.593139 34.459790 -5.929163 -1.112256 23.469765 -0.000001 -0.000001 -0.000006 -12.039256 18.691578 3.018380 -1.485787 0.246311 -3.173111 -2.033385 -1.020527 -2.215479 -1.244312 -0.432609 -1.689372 -0.391694 -0.172822 -0.627143 0.000010 0.000004 -0.000006 -14.424706 21.116744 12.579838 -0.432752 -0.771071 2.756259 0.551131 0.462044 5.685272 0.263427 0.178384 2.826471 0.080734 0.025639 0.958882 0.000003 -0.000003 -0.000009 -0.000006 -0.000003 -0.000001 0.000011 -0.000001 0.000002 -7.293718 -5.153610 16.537544 -14.167919 0.384145 -14.173260 -8.837291 8.730153 -4.298115 0.000006 -0.000011 -0.000000 -9.726290 -9.464856 -7.107780 -9.598748 3.933512 6.634821 0.155490 0.131121 0.010883 0.000001 0.000008 0.000001 
